<svg width="172" height="32" viewBox="0 0 172 32" fill="none" xmlns="http://www.w3.org/2000/svg">
<path d="M6.8886 0.00216589H20.3311C25.604 0.00216589 28.6914 3.4339 28.6914 8.48847C28.6914 15.538 24.0835 20.6835 16.8159 20.6835H10.3085L7.93254 31.4872H0L6.88638 0L6.8886 0.00216589ZM11.45 15.2135H15.9626C18.9082 15.2135 21.0448 13.1276 21.0448 9.60282C21.0448 7.65543 19.9056 6.12563 17.9108 6.12563H13.4447L11.45 15.2135Z" fill="white"/>
<path d="M28.0269 22.447C28.0269 14.4713 33.2509 7.83936 42.3715 7.83936C48.5929 7.83936 52.2522 11.5957 52.2522 17.3924C52.2522 25.3226 47.0281 32 38.0982 32C31.7815 32 28.0291 28.1507 28.0291 22.447H28.0269ZM44.5103 17.7624C44.5103 15.352 43.4664 13.6361 41.5647 13.6361C37.8589 13.6361 35.7688 17.5785 35.7688 22.0748C35.7688 24.4398 36.7662 26.2487 38.8562 26.2487C42.1808 26.2487 44.5081 22.3539 44.5081 17.7624H44.5103Z" fill="white"/>
<path d="M64.6502 25.3226C64.6502 24.3944 64.0318 23.6544 62.4648 23.0961L59.6633 22.1224C56.2899 20.9626 54.9601 18.7383 54.9601 15.815C54.9601 13.4046 56.1481 7.83936 65.4104 7.83936C68.9722 7.83936 72.8199 8.85848 74.7194 10.3428L72.3921 14.9343C70.7298 13.3115 67.833 11.9202 65.7895 11.9202C63.5575 11.9202 62.4161 13.0324 62.4161 14.4237C62.4161 15.3974 62.9857 16.092 64.4596 16.6026L67.3565 17.5763C70.9182 18.7816 72.9618 20.5904 72.9618 24.1607C72.9618 28.287 69.2094 31.9503 61.5628 31.9503C57.0967 31.9503 53.7721 30.559 51.9214 28.7501L54.4392 24.2061C55.9109 26.015 58.6194 27.8694 61.2325 27.8694C63.2273 27.8694 64.6524 26.9411 64.6524 25.3183L64.6502 25.3226Z" fill="white"/>
<path d="M84.6002 23.096C84.2212 24.7643 84.5537 25.8786 86.1207 25.8786C87.4505 25.8786 89.2081 25.0434 90.2521 24.3012L88.8757 30.8856C87.2134 31.5347 84.9814 31.9523 82.9379 31.9523C77.6651 31.9523 75.8609 29.1697 77.0489 23.6521L79.3761 13.0799H75.9097L76.9071 8.34991C81.229 8.34991 83.3191 7.88687 84.9814 1.16187H89.3987L87.8317 8.34991H94.0067L92.9605 13.0799H86.7856L84.6002 23.096Z" fill="white"/>
<path d="M99.5636 0.00219727H111.011C115.952 0.00219727 118.897 3.24784 118.897 8.07089C118.897 14.8413 114.671 19.7574 107.687 19.7574H99.7542L97.1899 31.4894H92.6772L99.5636 0.00219727ZM100.512 16.3711H107.306C111.486 16.3711 114.383 13.4024 114.383 8.53394C114.383 5.84437 112.862 3.57242 110.061 3.57242H103.267L100.512 16.3711Z" fill="white"/>
<path d="M123.029 26.5282C122.696 28.0125 123.124 28.3825 123.931 28.3825C124.642 28.3825 125.451 28.1034 126.067 27.5949L125.307 31.4443C124.596 31.7234 123.74 31.9549 122.506 31.9549C118.99 31.9549 117.993 30.146 118.8 26.4373L124.596 0.00463867H128.822L123.026 26.5282H123.029Z" fill="white"/>
<path d="M137.087 8.76782L134.474 20.6383C133.144 26.9457 134.853 28.4755 137.894 28.4755C140.27 28.4755 143.641 26.9457 145.019 20.6383L147.584 8.76782H151.906L146.919 31.4896H142.643L143.45 28.0124C142.216 29.9598 139.698 31.9548 136.136 31.9548C131.814 31.9548 128.299 29.6829 130.198 20.872L132.858 8.76999H137.085L137.087 8.76782Z" fill="white"/>
<path d="M165.206 25.2294C165.206 23.7927 164.256 22.8644 162.309 22.2153L159.127 21.1486C155.944 20.0818 154.709 17.9483 154.709 15.4903C154.709 12.4307 156.846 8.30225 163.925 8.30225C167.013 8.30225 170.386 9.36897 172 10.8533L170.337 14.0535C168.961 12.5238 166.49 11.2255 164.021 11.2255C160.791 11.2255 159.129 12.9868 159.129 14.9342C159.129 16.2779 159.984 17.1607 161.647 17.6692L164.83 18.7359C168.108 19.8027 169.961 21.657 169.961 24.6712C169.961 28.8905 166.113 31.9523 160.08 31.9523C156.281 31.9523 153.098 30.5155 151.578 28.6136L153.335 25.3679C154.523 27.0838 156.946 29.0312 160.033 29.0312C162.788 29.0312 165.211 27.7329 165.211 25.2294H165.206Z" fill="white"/>
</svg>
